<svg xmlns="http://www.w3.org/2000/svg" xmlns:xlink="http://www.w3.org/1999/xlink" viewBox="0 0 87 110"><defs><path id="a" d="M32 18.5c-1.7-1.9-1.5-4.7.3-6.4 1.9-1.7 4.7-1.5 6.4.3 1.7 1.9 1.5 4.7-.3 6.4-.9.8-1.9 1.2-3 1.2-1.2 0-2.5-.5-3.4-1.5m-.7-11.9c-4 3.4-7.7 7.5-10.8 11.4-4.2-.7-12.1-2.3-20.5 11.7 0 0 9.2-5.8 14-2.8-.6.9-1.1 1.7-1.4 2.1-.2.3-.2.6-.1.9.1.3.3.7.6 1.1-5 6.7-8 14.9-8 23.8 0 9.2 3.2 17.6 8.6 24.3 8.8 10.8 20.2 20.5 30 30.4 9.8-9.9 21.3-19.6 30-30.4 5.4-6.6 8.6-15.1 8.6-24.3 0-16.9-10.9-31.3-26.1-36.5-2.5-.9-5.1.9-5.1 3.6v24c-2.1-1.3-4.7-2.1-7.5-2.1-6.9 0-12.6 4.8-12.6 10.8s5.6 10.8 12.6 10.8c6.9 0 12.6-4.8 12.6-10.8V23.9c0-.4.3-.7.7-.7.1 0 .2 0 .3.1 10.3 5 17.4 16.9 17.4 29.2 0 17.1-13.9 31.8-31 31.8s-31-14.7-31-31.8c0-5.8 1.6-12.2 4.5-16.7.2.2.4.3.5.5.5.4 1.1.4 1.5.2.5-.2 1.1-.5 2.1-1 2.3 5.2-4.6 13.6-4.6 13.6C31.5 42.6 31 34.5 30.8 30.2c4.2-2.6 8.9-5.8 12.7-9.2C53.5 11.9 52.8.3 52.8.3S51.5 0 49.3 0c-4-.1-11.2.9-18 6.6"/></defs><clipPath id="b"><use xlink:href="#a" overflow="visible"/></clipPath><linearGradient id="c" gradientUnits="userSpaceOnUse" x1="-263.636" y1="-388.244" x2="-262.022" y2="-388.244" gradientTransform="rotate(-90 4304.612 -22091.08) scale(67.8813)"><stop offset="0" stop-color="#ff5b00"/><stop offset=".104" stop-color="#f95709"/><stop offset=".274" stop-color="#ea4b21"/><stop offset=".489" stop-color="#d23949"/><stop offset=".74" stop-color="#b01f80"/><stop offset="1" stop-color="#8800c1"/></linearGradient><path d="M0-.1h82.4v109.6H0V-.1z" clip-path="url(#b)" fill="url(#c)"/></svg>