<svg version="1.1" xmlns="http://www.w3.org/2000/svg" xmlns:xlink="http://www.w3.org/1999/xlink" x="0" y="0" viewBox="0 0 390 110" xml:space="preserve"><style>.st2{fill:#fff}</style><defs><path id="SVGID_1_" d="M32 18.8c-1.7-1.9-1.5-4.7.3-6.4 1.9-1.7 4.7-1.5 6.4.3 1.7 1.9 1.5 4.7-.3 6.4-.9.8-1.9 1.2-3 1.2-1.2 0-2.5-.5-3.4-1.5m-.7-11.9c-4 3.4-7.7 7.5-10.8 11.4C16.3 17.6 8.4 16 0 30c0 0 9.2-5.8 14-2.8-.6.9-1.1 1.7-1.4 2.1-.2.3-.2.6-.1.9.1.3.3.7.6 1.1-5 6.7-8 14.9-8 23.8 0 9.2 3.2 17.6 8.6 24.3 8.8 10.8 20.2 20.5 30 30.4 9.8-9.9 21.3-19.6 30-30.4 5.4-6.6 8.6-15.1 8.6-24.3 0-16.9-10.9-31.3-26.1-36.5-2.5-.9-5.1.9-5.1 3.6v24c-2.1-1.3-4.7-2.1-7.5-2.1-6.9 0-12.6 4.8-12.6 10.8s5.6 10.8 12.6 10.8c6.9 0 12.6-4.8 12.6-10.8V24.2c0-.4.3-.7.7-.7.1 0 .2 0 .3.1 10.3 5 17.4 16.9 17.4 29.2 0 17.1-13.9 31.8-31 31.8s-31-14.7-31-31.8c0-5.8 1.6-12.2 4.5-16.7.2.2.4.3.5.5.5.4 1.1.4 1.5.2.5-.2 1.1-.5 2.1-1 2.3 5.2-4.6 13.6-4.6 13.6C31.5 42.9 31 34.8 30.8 30.5c4.2-2.6 8.9-5.8 12.7-9.2C53.5 12.2 52.8.6 52.8.6S51.5.3 49.3.3c-4-.1-11.2.9-18 6.6"/></defs><clipPath id="SVGID_2_"><use xlink:href="#SVGID_1_" overflow="visible"/></clipPath><linearGradient id="SVGID_3_" gradientUnits="userSpaceOnUse" x1="-397.754" y1="482.272" x2="-396.139" y2="482.272" gradientTransform="matrix(0 -67.8813 -67.8813 0 32778.39 -26890.223)"><stop offset="0" stop-color="#ff5b00"/><stop offset=".104" stop-color="#f95709"/><stop offset=".274" stop-color="#ea4b21"/><stop offset=".489" stop-color="#d23949"/><stop offset=".74" stop-color="#b01f80"/><stop offset="1" stop-color="#8800c1"/></linearGradient><path clip-path="url(#SVGID_2_)" fill="url(#SVGID_3_)" d="M0 .2h82.4v109.6H0z"/><g><defs><path id="SVGID_4_" d="M56.3 18.6z"/></defs><clipPath id="SVGID_5_"><use xlink:href="#SVGID_4_" overflow="visible"/></clipPath><linearGradient id="SVGID_6_" gradientUnits="userSpaceOnUse" x1="56.286" y1="18.587" x2="56.289" y2="18.587" gradientTransform="matrix(0 -.00078 -.00078 0 480.374 224.145)"><stop offset="0" stop-color="#ff5b00"/><stop offset=".104" stop-color="#f95709"/><stop offset=".274" stop-color="#ea4b21"/><stop offset=".489" stop-color="#d23949"/><stop offset=".74" stop-color="#b01f80"/><stop offset="1" stop-color="#8800c1"/></linearGradient></g><g><path class="st2" d="M99.5 64.8h3.3c.3 6.5 4.4 9.8 12.3 9.8 3.5 0 6.1-.7 8-2.1 1.9-1.4 2.8-3.4 2.8-5.9 0-2.1-.8-3.8-2.3-5-1.5-1.2-4.1-2.2-7.7-3l-3.8-.8c-3.9-.8-6.7-2-8.6-3.7-1.9-1.7-2.8-4-2.8-7.1 0-3 1.2-5.4 3.5-7.2 2.3-1.8 5.5-2.7 9.5-2.7 4.7 0 8.3 1 10.7 3.1 2.4 2 3.6 4.8 3.7 8.3h-3.3c-.3-5.6-4-8.5-11.1-8.5-3.1 0-5.5.6-7.2 1.9-1.7 1.2-2.5 2.9-2.5 5.1 0 2.2.7 3.9 2.1 5 1.4 1.2 3.9 2.2 7.4 2.9l3.8.8c4.2.9 7.3 2.2 9.1 3.9 1.8 1.7 2.7 4 2.7 6.9 0 3.4-1.2 6.1-3.7 8.1s-6 3-10.4 3c-9.9-.1-15.1-4.3-15.5-12.8M135.8 73.2c-2.4-2.6-3.6-6.2-3.6-10.6 0-4.4 1.2-8 3.6-10.6 2.4-2.7 5.5-4 9.4-4 3.9 0 7 1.3 9.5 4 2.4 2.7 3.6 6.3 3.6 10.6 0 4.4-1.2 7.9-3.6 10.6-2.5 2.7-5.6 4.1-9.5 4.1-3.9 0-7.1-1.3-9.4-4.1m9.3 1.3c3 0 5.4-1.1 7.2-3.3 1.8-2.1 2.7-5 2.7-8.6 0-3.7-.9-6.5-2.7-8.7-1.8-2.1-4.2-3.2-7.2-3.2s-5.4 1.1-7.2 3.2c-1.8 2.1-2.7 5-2.7 8.7 0 3.7.9 6.5 2.7 8.6 1.9 2.3 4.2 3.3 7.2 3.3M181.7 50.7c1.7 1.8 2.6 4.3 2.6 7.5v18.4h-3.1V58.5c0-5.1-2.5-7.7-7.4-7.7-2.3 0-4.3.9-6 2.6-1.7 1.7-2.5 4.3-2.6 7.6v15.7h-3.1v-28h2.9v5.2c.9-1.8 2.2-3.3 3.8-4.3 1.6-1 3.5-1.5 5.5-1.5 3.2-.1 5.7.8 7.4 2.6M210.8 48.7h2.9v26.9c0 4-1 7-3.1 9.2-2.1 2.1-5.2 3.2-9.3 3.2-3.3 0-6-.8-7.9-2.3s-3-3.7-3.3-6.4h3c.6 4.1 3.3 6.1 8.2 6.1 6.2 0 9.3-3.3 9.3-9.8v-3.8c-2.2 3.7-5.5 5.5-9.9 5.5-3.8 0-6.9-1.3-9.1-4-2.2-2.7-3.4-6.2-3.4-10.6 0-4.4 1.1-8 3.4-10.6 2.2-2.7 5.3-4 9.1-4 4.6 0 8 2 10.1 5.9v-5.3zm-9.7 25.8c3 0 5.3-1.1 7.1-3.2 1.7-2.1 2.6-5 2.6-8.7 0-3.7-.9-6.6-2.6-8.7-1.7-2.1-4.1-3.2-7.1-3.2s-5.3 1.1-7.1 3.3c-1.7 2.2-2.6 5-2.6 8.6 0 3.6.9 6.5 2.6 8.6 1.8 2.3 4.1 3.3 7.1 3.3M241.1 76.7l-7.4-13h-4.6v13h-10.8V38h18.6c4.6 0 8.2 1.1 10.8 3.3 2.7 2.2 4 5.2 4 9.1 0 2.6-.6 4.9-1.9 6.8-1.3 1.9-3.1 3.4-5.4 4.4l8.8 15.1h-12.1zm-11.9-30.2v8.9h6.9c1.4 0 2.6-.4 3.5-1.2.9-.8 1.3-1.9 1.3-3.2 0-1.3-.4-2.4-1.3-3.2-.9-.8-2.1-1.2-3.5-1.2h-6.9z"/><path class="st2" d="M266.6 77.3c-4.6 0-8.3-1.3-11-4-2.7-2.7-4.1-6.2-4.1-10.6 0-4.5 1.4-8 4.1-10.7 2.7-2.6 6.3-4 11-4s8.3 1.3 11 4c2.7 2.7 4.1 6.2 4.1 10.7 0 4.4-1.4 8-4.1 10.6-2.7 2.7-6.4 4-11 4m0-7.8c3.4 0 5-2.3 5-6.8 0-4.6-1.7-6.8-5-6.8-3.4 0-5 2.3-5 6.8s1.7 6.8 5 6.8M286.6 73.3c-2.7-2.7-4.1-6.2-4.1-10.6 0-4.5 1.4-8 4.1-10.7 2.6-2.6 6.3-4 10.8-4 4 0 7.3 1 9.9 3.1 2.6 2.1 4 4.9 4.4 8.4h-9.8c-.4-2.4-1.9-3.6-4.4-3.6-3.3 0-4.9 2.2-4.9 6.7 0 4.4 1.6 6.6 4.9 6.6 2.9 0 4.4-1.4 4.7-4.1h9.8c-.2 3.7-1.6 6.7-4.2 8.8-2.6 2.2-6 3.3-10.2 3.3-4.7.1-8.3-1.2-11-3.9M332.7 76.7l-6.4-10.3L323 70v6.7h-9.8V38h9.8v21.2l9.3-10.5h11.2l-10.5 11 11.1 17z"/><path class="st2" d="M371.3 65.5h-20.5c.6 3.1 2.5 4.7 5.6 4.7 2.3 0 4-.8 4.9-2.4h9.3c-.8 3-2.4 5.3-5 7-2.6 1.7-5.7 2.5-9.2 2.5-4.5 0-8.1-1.3-10.9-4-2.8-2.7-4.2-6.2-4.2-10.6 0-4.4 1.4-8 4.1-10.6 2.7-2.7 6.4-4 10.8-4 4.5 0 8.1 1.4 10.9 4.2 2.7 2.8 4.1 6.6 4.1 11.6v1.6zm-20.5-5.9h10.9c-.6-3-2.5-4.6-5.5-4.6-3 .1-4.7 1.6-5.4 4.6M390 55.7h-5.3v11.2c0 1 .2 1.7.7 2 .5.3 1.3.5 2.5.5h2.1v7.3c-1.7.2-3.1.3-4.2.3-3.9 0-6.8-.7-8.5-2.1-1.7-1.4-2.5-3.6-2.5-6.8V55.7h-4v-7.1h4v-8.5h10v8.5h5.3v7.1z"/></g></svg>